<?xml version="1.0" encoding="iso-8859-1"?>
<!-- Generator: Adobe Illustrator 25.2.1, SVG Export Plug-In . SVG Version: 6.00 Build 0)  -->
<svg version="1.1" id="Layer_1" xmlns="http://www.w3.org/2000/svg" xmlns:xlink="http://www.w3.org/1999/xlink" x="0px" y="0px"
	 viewBox="0 0 64 64" style="enable-background:new 0 0 64 64;" xml:space="preserve">
<path d="M32,6C17.641,6,6,17.641,6,32c0,14.359,11.641,26,26,26s26-11.641,26-26C58,17.641,46.359,6,32,6z M32,54
	c-12.15,0-22-9.85-22-22s9.85-22,22-22s22,9.85,22,22S44.15,54,32,54z"/>
<polygon points="45.435,19.979 44.021,18.565 30.586,30.586 33.414,33.414 "/>
<polygon points="40.817,42.639 42.64,40.816 33.824,30.176 30.177,33.823 "/>
<polygon points="33,18 31,18 30.5,14 33.5,14 "/>
<polygon points="31,46 33,46 33.5,50 30.5,50 "/>
<polygon points="46,33 46,31 50,30.5 50,33.5 "/>
<polygon points="18,31 18,33 14,33.5 14,30.5 "/>
<g>
	<circle cx="32" cy="32" r="4"/>
</g>
</svg>